HIERARCHY
ROOT SpineBase
{
  OFFSET 0.000000 0.000000 0.000000
  CHANNELS 6 Xposition Yposition Zposition Zrotation Xrotation Yrotation
  JOINT SpineMid
  {
    OFFSET 0.000000 25.445851 0.000000
    CHANNELS 3 Zrotation Xrotation Yrotation
    JOINT SpineShoulder
    {
      OFFSET -0.281715 18.810301 -0.806604
      CHANNELS 3 Zrotation Xrotation Yrotation
      JOINT Neck
      {
        OFFSET -0.160231 6.214378 -0.443818
        CHANNELS 3 Zrotation Xrotation Yrotation
        JOINT Head
        {
          OFFSET -0.180530 9.159180 6.939682
          CHANNELS 3 Zrotation Xrotation Yrotation
          End Site
          {
            OFFSET 0 0 0
          }
        }
      }
      JOINT ShoulderLeft
      {
        OFFSET -3.171624 -0.371120 -4.641681
        CHANNELS 3 Zrotation Xrotation Yrotation
        JOINT ElbowLeft
        {
          OFFSET -5.775252 -27.302304 0.244350
          CHANNELS 3 Zrotation Xrotation Yrotation
          JOINT WristLeft
          {
            OFFSET 1.425722 -19.102473 13.340711
            CHANNELS 3 Zrotation Xrotation Yrotation
            JOINT HandLeft
            {
              OFFSET -1.380748 -4.525179 1.369445
              CHANNELS 3 Zrotation Xrotation Yrotation
              JOINT HandTipLeft
              {
                OFFSET 1.254048 -3.638114 0.041711
                CHANNELS 3 Zrotation Xrotation Yrotation
                End Site
                {
                  OFFSET 0 0 0
                }
              }
              JOINT ThumbLeft
              {
                OFFSET 3.070125 -0.010941 -1.748281
                CHANNELS 3 Zrotation Xrotation Yrotation
                End Site
                {
                  OFFSET 0 0 0
                }
              }
            }
          }
        }
      }
      JOINT ShoulderRight
      {
        OFFSET 6.467726 -1.908167 -5.509964
        CHANNELS 3 Zrotation Xrotation Yrotation
        JOINT ElbowRight
        {
          OFFSET -13.920323 -19.830748 -1.003655
          CHANNELS 3 Zrotation Xrotation Yrotation
          JOINT WristRight
          {
            OFFSET -5.426263 -17.320930 8.697549
            CHANNELS 3 Zrotation Xrotation Yrotation
            JOINT HandRight
            {
              OFFSET -0.113831 -5.379761 3.919081
              CHANNELS 3 Zrotation Xrotation Yrotation
              JOINT HandTipRight
              {
                OFFSET -0.432177 -4.377640 2.125490
                CHANNELS 3 Zrotation Xrotation Yrotation
                End Site
                {
                  OFFSET 0 0 0
                }
              }
              JOINT ThumbRight
              {
                OFFSET -1.527085 0.958580 -0.414937
                CHANNELS 3 Zrotation Xrotation Yrotation
                End Site
                {
                  OFFSET 0 0 0
                }
              }
            }
          }
        }
      }
    }
  }
  JOINT HipLeft
  {
    OFFSET -5.734560 0.097775 -1.551080
    CHANNELS 3 Zrotation Xrotation Yrotation
    JOINT KneeLeft
    {
      OFFSET 18.596701 -36.442060 -7.301643
      CHANNELS 3 Zrotation Xrotation Yrotation
      JOINT AnkleLeft
      {
        OFFSET 7.178847 -22.351453 5.956199
        CHANNELS 3 Zrotation Xrotation Yrotation
        JOINT FootLeft
        {
          OFFSET -4.932165 -8.789649 -7.016235
          CHANNELS 3 Zrotation Xrotation Yrotation
          End Site
          {
            OFFSET 0 0 0
          }
        }
      }
    }
  }
  JOINT HipRight
  {
    OFFSET 4.217897 2.000706 -4.208614
    CHANNELS 3 Zrotation Xrotation Yrotation
    JOINT KneeRight
    {
      OFFSET 1.140068 -37.180263 -5.560586
      CHANNELS 3 Zrotation Xrotation Yrotation
      JOINT AnkleRight
      {
        OFFSET 7.549297 -32.347923 -0.736526
        CHANNELS 3 Zrotation Xrotation Yrotation
        JOINT FootRight
        {
          OFFSET -1.151358 -2.135262 -12.433374
          CHANNELS 3 Zrotation Xrotation Yrotation
          End Site
          {
            OFFSET 0 0 0
          }
        }
      }
    }
  }
}
MOTION
Frames: 14
Frame Time: 0.033333
79.183288 77.660671 289.477686 -1.713437 5.551698 14.520941 -0.008448 -0.174984 -14.429820 -0.085621 -0.876454 -0.035846 -1.180852 -0.793282 2.190647 0.000000 0.000000 0.000000 2.062887 1.522218 -1.187549 -3.925312 -4.967765 -1.626526 38.399572 -18.653986 25.831882 -3.796632 84.063863 -10.873536 0.000000 0.000000 0.000000 0.000000 0.000000 0.000000 10.269573 1.813171 -4.823274 -13.615487 4.387594 -1.843248 6.969039 -2.114026 8.361626 11.310983 15.561119 2.030860 0.000000 0.000000 0.000000 0.000000 0.000000 0.000000 -4.960795 -8.297832 -16.120991 -10.977337 20.201963 5.944169 37.980966 17.348281 -34.452889 0.000000 0.000000 0.000000 0.165889 -9.858963 -14.697181 -0.929612 3.949512 0.290812 2.281577 4.619512 -12.910573 0.000000 0.000000 0.000000
79.356895 77.732195 289.183354 -1.601704 5.843052 12.057419 -0.127467 -0.089346 -11.969926 -0.140126 -0.885483 -0.040841 -1.168062 -0.772815 2.239899 0.000000 0.000000 0.000000 2.111947 1.200078 -1.184852 -3.700143 -5.448055 -1.518126 47.704399 -23.915113 34.910552 -172.826783 54.882779 149.911868 0.000000 0.000000 0.000000 0.000000 0.000000 0.000000 11.687755 1.878269 -5.172516 -15.067189 5.166867 -2.058606 4.994967 -3.088748 7.016752 9.486125 17.015561 1.969398 0.000000 0.000000 0.000000 0.000000 0.000000 0.000000 -5.333968 -8.987724 -13.836655 -10.567960 20.394494 6.022864 37.593724 20.398342 -35.565118 0.000000 0.000000 0.000000 0.480758 -9.840727 -12.189680 -0.929203 3.679800 0.280417 2.471948 4.720733 -13.808667 0.000000 0.000000 0.000000
79.506992 77.806484 289.000988 -1.576045 5.935763 9.719413 -0.324775 0.023538 -9.647667 -0.262273 -0.955370 -0.065330 -0.622448 -0.456255 2.123460 0.000000 0.000000 0.000000 2.401363 1.051871 -1.140710 -2.935772 -6.012500 -0.991348 42.173400 -26.127240 32.412862 -163.559737 29.592740 140.666573 0.000000 0.000000 0.000000 0.000000 0.000000 0.000000 13.287604 2.080187 -5.449489 -16.447574 5.123713 -2.075240 3.223765 -2.094523 5.617597 6.505431 13.199546 1.974097 0.000000 0.000000 0.000000 0.000000 0.000000 0.000000 -5.505249 -9.580385 -11.686189 -8.603264 19.856630 5.799944 33.353722 21.954475 -33.997604 0.000000 0.000000 0.000000 1.021693 -9.501653 -9.798079 -0.941140 2.358237 0.066233 2.218837 0.251951 -13.435523 0.000000 0.000000 0.000000
79.636846 77.796901 288.841283 -1.525674 6.027500 8.374796 -0.588933 0.115415 -8.325273 -0.319243 -0.941826 -0.079354 -0.211353 -0.745136 2.055324 0.000000 0.000000 0.000000 2.682605 0.879509 -1.106535 -3.042066 -6.072417 -1.084964 30.434672 -19.534072 21.633399 -147.590229 33.948330 121.151915 0.000000 0.000000 0.000000 0.000000 0.000000 0.000000 14.518646 1.815581 -5.348076 -17.553764 4.109982 -1.944395 1.947034 2.012153 4.419421 4.350307 8.413330 1.717131 0.000000 0.000000 0.000000 0.000000 0.000000 0.000000 -5.643394 -10.117556 -10.550096 -8.462558 20.305842 6.074698 34.677279 19.365215 -33.938151 0.000000 0.000000 0.000000 1.287081 -9.327187 -8.428383 -0.999900 2.035623 0.050077 1.881279 -6.204459 -11.581614 0.000000 0.000000 0.000000
79.719360 77.783904 288.761483 -1.516513 6.021856 7.971177 -0.854423 0.148016 -7.946953 -0.344646 -1.038262 -0.097150 0.155966 -0.762643 2.032731 0.000000 0.000000 0.000000 2.962165 0.990669 -1.075350 -2.322250 -7.044012 -0.603411 29.015840 -22.070858 22.096918 -152.053941 19.770768 127.487440 0.000000 0.000000 0.000000 0.000000 0.000000 0.000000 15.352562 1.617424 -5.101280 -18.132721 3.712244 -1.926086 3.187101 1.970673 5.244453 1.949773 8.499044 -0.189682 0.000000 0.000000 0.000000 0.000000 0.000000 0.000000 -5.573333 -10.317932 -10.244780 -8.570086 20.578381 6.273261 34.000737 19.469365 -33.440786 0.000000 0.000000 0.000000 1.386532 -9.174706 -8.014811 -1.017633 1.923113 0.054794 1.818585 -18.176732 -7.789256 0.000000 0.000000 0.000000
79.759841 77.758318 288.723976 -1.561757 5.938514 8.216599 -1.090112 0.135871 -8.216923 -0.368967 -1.117989 -0.116093 0.550299 -0.527058 2.013481 0.000000 0.000000 0.000000 3.255352 1.210753 -1.042953 -2.208189 -7.736319 -0.581943 26.492601 -20.875922 20.195282 -159.706023 5.134326 159.693871 0.000000 0.000000 0.000000 0.000000 0.000000 0.000000 15.606637 1.438522 -4.764311 -17.857480 3.342943 -1.767542 4.232297 1.315199 5.831831 1.639531 10.325787 -0.961130 0.000000 0.000000 0.000000 0.000000 0.000000 0.000000 -5.469167 -10.246069 -10.494841 -8.727645 20.673793 6.351294 32.928569 19.711403 -32.622143 0.000000 0.000000 0.000000 1.372875 -9.058043 -8.257978 -0.966829 1.967195 0.065710 3.829174 -38.032814 -0.626580 0.000000 0.000000 0.000000
79.765198 77.728437 288.699704 -1.683574 5.767053 8.876716 -1.316957 0.022659 -8.904500 -0.399885 -1.218408 -0.140878 1.253864 -0.014497 1.832006 0.000000 0.000000 0.000000 3.607435 1.649438 -1.006525 -2.556842 -8.255575 -0.915640 23.643684 -17.783665 17.414899 172.964357 20.308230 -116.412932 0.000000 0.000000 0.000000 0.000000 0.000000 0.000000 15.595653 1.318221 -4.315970 -17.397694 3.045648 -1.731772 5.608814 -1.051715 6.487689 5.055700 12.761642 0.163948 0.000000 0.000000 0.000000 0.000000 0.000000 0.000000 -5.279654 -10.000524 -11.109943 -8.905278 20.665186 6.369810 30.938336 22.802658 -32.361048 0.000000 0.000000 0.000000 1.331954 -8.923783 -8.916304 -0.883766 2.023844 0.061763 14.972318 -61.237621 16.259045 0.000000 0.000000 0.000000
79.740603 77.674251 288.718766 -1.848325 5.482633 10.079407 -1.475485 -0.127113 -10.131509 -0.383159 -1.295067 -0.158211 2.036460 0.144187 1.508255 0.000000 0.000000 0.000000 3.706262 1.994800 -0.938832 -3.173083 -8.853089 -1.651823 19.464253 -12.203863 13.376380 98.218008 23.152705 -40.024410 0.000000 0.000000 0.000000 0.000000 0.000000 0.000000 15.017313 1.250447 -3.816801 -16.392925 3.094793 -1.771454 6.983031 -5.323443 7.169033 6.560190 18.433829 -0.587057 0.000000 0.000000 0.000000 0.000000 0.000000 0.000000 -4.845190 -9.750323 -12.337146 -9.534042 21.020504 6.683883 27.726333 21.647836 -29.174457 0.000000 0.000000 0.000000 1.204294 -8.744993 -10.122878 -0.715093 2.141594 0.048506 53.032875 -73.987869 59.911937 0.000000 0.000000 0.000000
79.680550 77.620207 288.774790 -2.045247 5.125560 11.676009 -1.504878 -0.248619 -11.741501 -0.309562 -1.313159 -0.161709 2.569270 -0.146261 1.214813 0.000000 0.000000 0.000000 3.902933 2.681880 -0.960925 -4.527898 -9.071038 -2.677041 14.952154 -3.934552 8.795370 7.046376 4.748493 -7.318653 0.000000 0.000000 0.000000 0.000000 0.000000 0.000000 14.186714 1.093466 -3.272058 -15.148664 3.708044 -1.918755 7.447905 -11.287838 7.294019 9.712588 25.330203 -1.147527 0.000000 0.000000 0.000000 0.000000 0.000000 0.000000 -4.332378 -9.336298 -13.900104 -10.397774 21.249276 6.917078 29.903825 15.039338 -27.688900 0.000000 0.000000 0.000000 1.039835 -8.552621 -11.727463 -0.701521 3.042018 0.216029 91.901726 -73.581145 102.141311 0.000000 0.000000 0.000000
79.603585 77.568310 288.882453 -2.188306 4.700352 13.233624 -1.388959 -0.431091 -13.302898 -0.147305 -1.282443 -0.144712 2.414352 -0.948647 1.150221 0.000000 0.000000 0.000000 3.928043 3.576655 -1.051036 -6.167230 -8.910173 -3.771626 5.917532 11.543454 1.699958 3.837717 -12.270490 1.867293 0.000000 0.000000 0.000000 0.000000 0.000000 0.000000 13.210671 1.026439 -2.817731 -14.086597 4.523442 -2.149605 8.523791 -18.079962 8.091424 7.026476 30.557969 -3.181045 0.000000 0.000000 0.000000 0.000000 0.000000 0.000000 -3.770877 -8.899262 -15.437965 -11.363196 21.605753 7.238084 31.028617 8.227948 -25.000167 0.000000 0.000000 0.000000 0.853650 -8.229252 -13.294264 -0.322254 2.347767 -0.006154 95.025347 -72.371000 106.247136 0.000000 0.000000 0.000000
79.562300 77.539408 288.998097 -2.205951 4.240958 14.319570 -1.095159 -0.607198 -14.377045 0.049357 -1.306966 -0.116440 1.551806 -2.013219 1.321293 0.000000 0.000000 0.000000 3.716887 4.569861 -1.193674 -7.795611 -8.361931 -4.743672 -2.162947 23.609044 -2.158298 3.489237 -20.168616 9.233517 0.000000 0.000000 0.000000 0.000000 0.000000 0.000000 12.052843 1.056234 -2.467058 -13.150235 5.427622 -2.396990 7.687426 -24.078443 7.342270 6.223124 37.332208 -3.758326 0.000000 0.000000 0.000000 0.000000 0.000000 0.000000 -3.434659 -8.534794 -16.570747 -12.133998 22.136868 7.649350 30.848806 2.550634 -21.772946 0.000000 0.000000 0.000000 0.657993 -7.849808 -14.394506 -0.186997 2.436238 -0.028655 71.030850 -74.071476 80.347079 0.000000 0.000000 0.000000
79.531098 77.527101 289.151371 -2.244220 3.712507 14.960051 -0.937291 -0.752601 -15.021222 0.140625 -1.333468 -0.108701 1.560959 -3.275217 1.080546 0.000000 0.000000 0.000000 3.764684 5.564172 -1.304194 -9.057754 -7.648771 -5.422682 -12.767106 42.391183 -5.361550 18.131569 -36.926198 22.924216 0.000000 0.000000 0.000000 0.000000 0.000000 0.000000 11.359285 1.380026 -2.291852 -12.443162 6.385192 -2.635163 5.422013 -29.153164 5.385365 3.299887 41.648545 -2.490644 0.000000 0.000000 0.000000 0.000000 0.000000 0.000000 -3.072902 -8.224953 -17.305134 -12.903787 22.813516 8.163834 30.205816 -0.998946 -19.331892 0.000000 0.000000 0.000000 0.657593 -7.390291 -15.043607 -0.301436 3.259255 0.152986 73.882292 -74.178474 83.567060 0.000000 0.000000 0.000000
79.511148 77.523861 289.312395 -2.274125 3.251093 15.039385 -0.712357 -0.685977 -15.093850 0.210564 -1.238840 -0.094016 1.589980 -5.335911 0.817013 0.000000 0.000000 0.000000 3.777463 6.035720 -1.387293 -9.834756 -7.121683 -5.778270 -18.176569 46.261411 -5.036010 31.686488 -40.158870 31.620607 0.000000 0.000000 0.000000 0.000000 0.000000 0.000000 10.821601 1.383414 -2.134894 -12.006294 6.773783 -2.750345 4.697208 -32.561216 4.691543 -6.741774 41.934898 -0.342828 0.000000 0.000000 0.000000 0.000000 0.000000 0.000000 -2.778006 -8.127935 -17.557423 -13.652527 23.620389 8.790650 28.914512 -1.368610 -18.283861 0.000000 0.000000 0.000000 0.783188 -6.959230 -15.127236 -0.291188 3.268109 0.151460 100.096876 -72.854636 110.419417 0.000000 0.000000 0.000000
79.497106 77.536630 289.444963 -2.240161 2.694149 15.542503 -0.551294 -0.867452 -15.603559 0.252757 -1.299878 -0.091776 1.504657 -6.184813 0.625602 0.000000 0.000000 0.000000 3.596546 6.797246 -1.429516 -9.685444 -6.985055 -5.558031 -18.802580 42.340880 -5.002893 31.235749 -37.839545 29.234799 0.000000 0.000000 0.000000 0.000000 0.000000 0.000000 10.287077 1.884938 -2.045803 -11.642465 6.659198 -2.733124 5.203530 -33.777847 5.089019 -14.890506 41.130472 0.797741 0.000000 0.000000 0.000000 0.000000 0.000000 0.000000 -2.575050 -7.789239 -18.169706 -14.249157 24.219096 9.263759 26.713657 1.430613 -18.400674 0.000000 0.000000 0.000000 0.798918 -6.575656 -15.653065 -0.296817 3.427997 0.157725 93.340692 -73.562348 103.484763 0.000000 0.000000 0.000000
